<?xml version="1.0" encoding="UTF-8"?>
<!DOCTYPE svg PUBLIC "-//W3C//DTD SVG 1.1//EN" "http://www.w3.org/Graphics/SVG/1.1/DTD/svg11.dtd">
<!-- Creator: CorelDRAW 2020 (64-Bit) -->
<svg xmlns="http://www.w3.org/2000/svg" xml:space="preserve" width="159.391mm" height="168.698mm" version="1.1" style="shape-rendering:geometricPrecision; text-rendering:geometricPrecision; image-rendering:optimizeQuality; fill-rule:evenodd; clip-rule:evenodd"
viewBox="0 0 19887.41 21048.71"
 xmlns:xlink="http://www.w3.org/1999/xlink"
 xmlns:xodm="http://www.corel.com/coreldraw/odm/2003">
 <defs>
  <style type="text/css">
   <![CDATA[
    .fil2 {fill:#2F2E41;fill-rule:nonzero}
    .fil1 {fill:#575A89;fill-rule:nonzero}
    .fil0 {fill:#FFB8B8;fill-rule:nonzero}
   ]]>
  </style>
 </defs>
 <g id="Layer_x0020_1">
  <metadata id="CorelCorpID_0Corel-Layer"/>
  <g id="_2083890482304">
   <path id="Path_945" class="fil0" d="M5733.97 9121.09c0,0 1185.51,3314.57 266.14,5177.5 -919.37,1862.93 1451.63,3967.81 1451.63,3967.81 0,0 6242.02,-3169.41 5443.62,-4766.2 -798.4,-1596.79 -2129.07,-3701.67 -1862.93,-5032.34l-5298.46 653.23z"/>
   <circle id="Ellipse_185" class="fil0" cx="8056.57" cy="6145.24" r="4233.94"/>
   <path id="Path_946" class="fil1" d="M5516.22 20589.03c-629.05,-169.35 -1233.89,-387.1 -1838.73,-629.05l120.97 -3217.8 1185.51 -2661.33c266.14,217.75 556.46,387.1 846.79,556.46 72.58,48.39 145.16,72.58 217.75,120.97 1112.93,532.26 2951.65,1016.14 4717.8,-314.52 653.24,-508.07 1209.7,-1137.12 1621,-1838.73l3362.96 1887.13 169.35 2032.29 193.55 2371.01c-290.33,193.55 -580.65,362.91 -870.98,532.26 -1572.61,870.98 -3314.57,1403.24 -5080.73,1572.61 -411.3,48.39 -822.59,48.39 -1233.89,48.39 -1161.29,0 -2298.41,-169.36 -3411.33,-459.68z"/>
   <path id="Path_947" class="fil1" d="M6338.81 12096.95l0 0 -169.35 1741.96 -96.77 919.37 -120.97 1354.86 -435.49 4475.88c-629.05,-169.35 -1233.89,-387.1 -1838.73,-629.05 -314.52,-120.97 -604.84,-266.14 -895.17,-435.49 -701.63,-362.91 -1354.86,-798.4 -1983.91,-1282.28l-459.68 -2177.45 24.19 -24.19 5975.89 -3943.61z"/>
   <path id="Path_948" class="fil1" d="M15242.18 19403.52c-1572.61,870.98 -3314.57,1403.24 -5080.73,1572.61 96.77,-1621 241.94,-3169.41 387.1,-4548.46 72.58,-701.63 169.35,-1379.05 266.14,-1983.91 290.33,-1935.52 604.84,-3266.18 822.59,-3435.54l1475.84 967.75 5951.69 2104.87 -120.97 2298.43c-822.59,967.75 -1766.15,1790.35 -2806.5,2491.98 -314.52,193.55 -604.86,387.1 -895.17,532.26z"/>
   <path id="Path_949" class="fil1" d="M822.59 18266.4c-290.33,-217.75 -556.46,-459.68 -822.59,-701.63l217.75 -1475.84 169.35 -24.19 750.01 -96.77 1645.19 3580.71c-677.44,-387.1 -1330.66,-798.4 -1959.71,-1282.28l0 0z"/>
   <path id="Path_950" class="fil1" d="M19887.41 15097c-290.33,459.68 -604.84,870.98 -967.75,1282.28 -822.59,967.75 -1766.15,1790.35 -2806.5,2491.98 -290.33,193.55 -580.65,362.91 -870.98,532.26l-145.16 -677.44 846.79 -2201.65 1016.14 -2685.52 2129.07 266.14c266.14,314.51 532.26,653.23 798.4,991.95z"/>
   <path id="Path_951" class="fil2" d="M12096.96 2298.42c-653.24,-1040.33 -1645.19,-1814.54 -2806.5,-2153.26l-870.97 701.63 338.72 -798.4c-290.33,-48.39 -556.46,-48.39 -846.79,-48.39l-774.21 991.95 314.52 -967.75c-1354.86,169.35 -2588.75,895.17 -3387.15,2008.1 -991.95,1427.44 -1161.31,3411.34 -193.55,4838.79 266.14,-822.59 580.65,-1596.8 846.79,-2395.2 217.75,24.19 411.3,24.19 629.05,0l314.52 -750.01 96.77 725.82c1016.14,-96.77 2491.98,-290.33 3459.72,-459.68l-96.77 -556.46 556.46 459.68c290.33,-72.58 459.68,-120.97 459.68,-169.35 701.63,1137.12 1403.24,1862.93 2129.07,3024.24 266.13,-1645.2 725.81,-2975.88 -169.36,-4451.7z"/>
   <ellipse id="Ellipse_186" class="fil0" cx="11855.03" cy="6000.09" rx="290.32" ry="580.65"/>
  </g>
 </g>
</svg>
