<?xml version="1.0" encoding="UTF-8"?>
<!DOCTYPE svg PUBLIC "-//W3C//DTD SVG 1.1//EN" "http://www.w3.org/Graphics/SVG/1.1/DTD/svg11.dtd">
<!-- Creator: CorelDRAW 2020 (64-Bit) -->
<svg xmlns="http://www.w3.org/2000/svg" xml:space="preserve" width="83.8648mm" height="88.762mm" version="1.1" style="shape-rendering:geometricPrecision; text-rendering:geometricPrecision; image-rendering:optimizeQuality; fill-rule:evenodd; clip-rule:evenodd"
viewBox="0 0 8277.01 8760.34"
 xmlns:xlink="http://www.w3.org/1999/xlink"
 xmlns:xodm="http://www.corel.com/coreldraw/odm/2003">
 <defs>
  <style type="text/css">
   <![CDATA[
    .fil2 {fill:#2F2E41;fill-rule:nonzero}
    .fil1 {fill:#575A89;fill-rule:nonzero}
    .fil0 {fill:#FFB8B8;fill-rule:nonzero}
   ]]>
  </style>
 </defs>
 <g id="Layer_x0020_1">
  <metadata id="CorelCorpID_0Corel-Layer"/>
  <g id="_2083896322048">
   <g id="_2083890482304">
    <path id="Path_945" class="fil0" d="M2386.45 3796.13c0,0 493.39,1379.5 110.77,2154.84 -382.64,775.35 604.15,1651.38 604.15,1651.38 0,0 2597.89,-1319.08 2265.6,-1983.65 -332.3,-664.58 -886.1,-1540.61 -775.34,-2094.43l-2205.18 271.86z"/>
    <circle id="Ellipse_185" class="fil0" cx="3353.09" cy="2557.61" r="1762.14"/>
    <path id="Path_946" class="fil1" d="M2295.82 8569.02c-261.81,-70.48 -513.54,-161.11 -765.27,-261.81l50.34 -1339.22 493.4 -1107.63c110.77,90.62 231.59,161.11 352.42,231.6 30.21,20.13 60.42,30.2 90.63,50.34 463.19,221.52 1228.45,422.91 1963.52,-130.91 271.87,-211.45 503.46,-473.26 674.65,-765.27l1399.64 785.41 70.48 845.83 80.55 986.8c-120.83,80.54 -241.66,151.03 -362.5,221.52 -654.51,362.5 -1379.5,584.02 -2114.57,654.51 -171.18,20.13 -342.35,20.13 -513.53,20.13 -483.33,0 -956.59,-70.49 -1419.78,-191.32l0.01 0z"/>
    <path id="Path_947" class="fil1" d="M2638.17 5034.67l0 0 -70.48 724.99 -40.28 382.64 -50.34 563.88 -181.25 1862.83c-261.81,-70.49 -513.54,-161.11 -765.27,-261.81 -130.9,-50.34 -251.73,-110.77 -372.56,-181.25 -292.02,-151.04 -563.88,-332.29 -825.69,-533.67l-191.32 -906.24 10.07 -10.07 2487.14 -1641.3 -0.01 0z"/>
    <path id="Path_948" class="fil1" d="M6343.7 8075.62c-654.51,362.5 -1379.5,584.02 -2114.57,654.5 40.28,-674.65 100.7,-1319.08 161.11,-1893.03 30.21,-292.02 70.49,-573.96 110.77,-825.69 120.83,-805.56 251.73,-1359.36 342.36,-1429.85l614.23 402.77 2477.06 876.03 -50.34 956.59c-342.36,402.77 -735.06,745.13 -1168.05,1037.14 -130.9,80.55 -251.73,161.11 -372.56,221.53l0.01 0z"/>
    <path id="Path_949" class="fil1" d="M342.35 7602.36c-120.83,-90.63 -231.59,-191.32 -342.35,-292.02l90.62 -614.23 70.49 -10.08 312.15 -40.28 684.71 1490.27c-281.94,-161.11 -553.82,-332.29 -815.62,-533.67l0 0z"/>
    <path id="Path_950" class="fil1" d="M8277.01 6283.27c-120.83,191.32 -251.73,362.5 -402.77,533.68 -342.35,402.77 -735.06,745.12 -1168.04,1037.14 -120.84,80.55 -241.66,151.04 -362.5,221.52l-60.42 -281.94 352.43 -916.31 422.92 -1117.7 886.1 110.77c110.77,130.9 221.52,271.87 332.29,412.84z"/>
    <path id="Path_951" class="fil2" d="M5034.67 956.59c-271.87,-432.98 -684.71,-755.2 -1168.04,-896.18l-362.5 292.02 140.98 -332.3c-120.83,-20.13 -231.6,-20.13 -352.43,-20.13l-322.22 412.84 130.9 -402.77c-563.88,70.49 -1077.42,372.57 -1409.71,835.76 -412.84,594.09 -483.33,1419.78 -80.55,2013.87 110.77,-342.35 241.66,-664.58 352.43,-996.87 90.63,10.07 171.18,10.07 261.81,0l130.9 -312.15 40.28 302.08c422.92,-40.28 1037.14,-120.83 1439.92,-191.32l-40.28 -231.6 231.6 191.32c120.83,-30.21 191.31,-50.34 191.31,-70.48 292.02,473.26 584.03,775.34 886.11,1258.66 110.76,-684.72 302.07,-1238.54 -70.5,-1852.77z"/>
    <ellipse id="Ellipse_186" class="fil0" cx="4933.99" cy="2497.2" rx="120.83" ry="241.66"/>
   </g>
  </g>
 </g>
</svg>
